<svg xmlns="http://www.w3.org/2000/svg" width="256" height="256"><path fill-opacity=".016" d="M0 128.004v128.004l128.25-.254 128.25-.254.254-127.75L257.008 0H0v128.004m.485.496c0 70.4.119 99.053.265 63.672.146-35.38.146-92.98 0-128C.604 29.153.485 58.1.485 128.5" fill="#1976D2" fill-rule="evenodd"/><path fill-opacity=".458" d="M50 5.699c-11.231 7.464-29.991 26.265-37.33 37.412L7 51.723v137.798l4.665 6.99c2.566 3.844 6.139 8.802 7.94 11.018l3.274 4.029-5.414 21.471c-2.977 11.809-5.425 21.809-5.439 22.221-.014.412 15.034.75 33.44.75 28.886 0 33.935-.223 36.889-1.632 3.165-1.509 3.782-1.509 8.212 0 4.035 1.375 9.806 1.632 36.63 1.632h31.84l11.231-3.594c29.663-9.492 55.694-29.411 73.319-56.104l5.413-8.197V52.895l-5.468-8.198c-10.237-15.348-23.58-28.793-38.872-39.169L196.5-.009l-69 .029-69 .03L50 5.699m6.11 63.697c-3.573 1.98-4.974 5.274-4.027 9.471.978 4.336 2.887 5.864 8.302 6.644 2.263.326 34.192.457 70.952.291l66.837-.302 2.413-2.806c3.824-4.446 2.685-11.338-2.244-13.584-3.84-1.749-139.051-1.478-142.233.286m16.525 43.08c-4.055 3.072-5.217 8.913-2.438 12.261 3.473 4.186 4.504 4.263 56.785 4.263 55.436 0 55.789-.036 57.86-5.978 1.336-3.832-.483-9.225-3.692-10.942-1.374-.735-18.713-1.07-54.334-1.048-43.476.026-52.631.27-54.181 1.444m23.051 40.508c-6.134 1.912-8.472 6.198-6.264 11.483.775 1.855 2.317 3.858 3.428 4.453 1.33.712 13.403 1.08 35.41 1.08h33.391l2.375-2.527c3.346-3.563 3.201-8.7-.347-12.25l-2.722-2.723-31.228-.196c-17.176-.109-32.495.198-34.043.68" fill="#1976D2" fill-rule="evenodd"/><path fill-opacity=".493" d="M52.223 4.75c-16.026 10.617-30.08 24.63-40.321 40.204L7 52.407v136.462l6.015 8.815c3.308 4.849 6.944 9.984 8.08 11.412l2.066 2.596-5.402 21.904-5.401 21.904 32.571.275c28.795.244 33.009.08 36.345-1.412 3.333-1.491 4.329-1.53 8.5-.338 3.388.969 13.695 1.447 36.412 1.69l31.687.339 12.194-4.077c12.738-4.257 18.416-6.809 28.433-12.778 17.951-10.695 36.418-28.836 46.519-45.699 1.318-2.2 2.752-4.15 3.188-4.333 1.189-.5.987-62.936-.21-65.172-.566-1.059-.618-2.111-.119-2.42 1.106-.683 1.524-69.244.426-69.724-.442-.193-3.504-4.4-6.804-9.35-7.973-11.957-24.395-28.312-36.419-36.268L195.661 0H59.393l-7.17 4.75M211 34.378c0 .207.787.995 1.75 1.75 1.586 1.243 1.621 1.208.378-.378-1.307-1.666-2.128-2.195-2.128-1.372M57.5 67.935c-4.959 2.056-7.613 8.574-5.276 12.958.702 1.317 2.844 3.229 4.76 4.25C60.279 86.899 64.109 87 127.333 87c58.978 0 67.259-.187 70.207-1.586 6.997-3.32 8.259-10.579 2.696-15.496L197.5 67.5l-69-.197c-37.95-.109-69.9.176-71 .632m15.344 44.32c-6.111 5.166-5.785 11.812.769 15.679 3.412 2.014 4.768 2.066 53.379 2.066 28.662 0 50.928-.399 52.347-.939 8-3.042 8.966-13.087 1.671-17.396-2.531-1.495-8.048-1.664-54.164-1.66l-51.346.005-2.656 2.245M96.5 151.689c-2.703.69-6.507 4.279-7.636 7.205-1.248 3.234.584 8.514 3.651 10.524 2.078 1.362 7 1.582 35.346 1.582h32.932l3.103-3.535c3.509-3.996 3.729-5.345 1.604-9.823-2.897-6.106-3.012-6.126-36.5-6.302-16.775-.089-31.4.069-32.5.349m27.25 88.973c.688.278 1.813.278 2.5 0 .688-.277.125-.504-1.25-.504s-1.937.227-1.25.504m5.063.021c.721.289 1.584.253 1.916-.079.332-.332-.258-.568-1.312-.525-1.165.048-1.402.285-.604.604" fill="#1976D2" fill-rule="evenodd"/><path fill-opacity=".971" d="M56 2.702C38.152 13.344 19.897 31.627 9.684 49.088L7 53.676l.136 26.412c.075 14.527.313 25.287.53 23.912 2.903-18.458 12.036-40.698 22.585-55 5.541-7.513 17.984-20.009 25.249-25.357C70.419 12.66 92.275 3.611 111 .666c1.375-.217-9.425-.451-24-.52L60.5.019 56 2.702M115.813.683c.721.289 1.584.253 1.916-.079.332-.332-.258-.568-1.312-.525-1.165.048-1.402.285-.604.604m22 0c.721.289 1.584.253 1.916-.079.332-.332-.258-.568-1.312-.525-1.165.048-1.402.285-.604.604m10.687.799c16.327 3.037 36.507 11.536 49.317 20.772 7.25 5.227 23.525 21.701 28.4 28.746 8.728 12.615 13.257 22.217 17.925 38 1.831 6.19 3.111 13.482 3.025 17.23-.022.952.382 1.991.897 2.309.573.355.936-10.3.936-27.48 0-15.432-.367-28.059-.815-28.059-.448 0-1.515-1.463-2.371-3.25-5.084-10.618-22.387-29.734-36.153-39.941C195.75-.506 197.873-.013 167.79.09c-24.654.085-25.854.172-19.29 1.392M7.079 109.583c.048 1.165.285 1.402.604.605.289-.722.253-1.585-.079-1.917-.332-.332-.568.258-.525 1.312M248.106 132c-.379.524-.513 1.364-1.519 9.5-1.115 9.018-6.945 25.677-12.773 36.5-12.905 23.967-38.202 46.3-62.314 55.013-18.744 6.774-22.561 7.418-44 7.426-17.893.006-21.179-.374-33.914-3.916l-8.915-2.48-9.085 3.571A1208.056 1208.056 0 0058 244.715c-4.675 1.942-9.4 3.882-10.5 4.311-1.1.43-5.067 2.062-8.817 3.628l-6.816 2.846 22.316.277c13.555.167 23.102-.119 24.317-.73 4.977-2.503 7.192-2.816 11.747-1.66 2.561.651 4.978 1.505 5.371 1.898 1.145 1.145 63.169.868 63.882-.285.34-.55 1.49-1 2.555-1 4.969 0 25.705-8.708 37.249-15.643 18.019-10.824 33.227-26.016 46.267-46.218l3.46-5.361-.282-27.639c-.155-15.201-.444-27.414-.643-27.139M7.116 161.059L7 187.618l3.564 5.941c1.961 3.267 5.561 8.49 8 11.607 2.44 3.116 4.436 6.395 4.436 7.286 0 .892-2.25 10.588-5 21.548-2.75 10.96-5 20.393-5 20.963 0 .639 3.455 1.037 9 1.037 7.876 0 9.009-.218 9.074-1.75.135-3.163.925-6.554 5.516-23.668 6.414-23.907 6.507-22.674-2.572-33.997-4.147-5.172-9.629-13.157-12.182-17.744C17.054 170.25 11 153.689 9.099 144l-1.473-7.5c-.217-1.1-.446 9.951-.51 24.559" fill="#1976D2" fill-rule="evenodd"/></svg>